<svg xmlns="http://www.w3.org/2000/svg">
  <symbol id="circle" viewBox="0 0 10 10">
    <circle  x="0" y="0" cx="5" cy="5" r="4" />
  </symbol>
  <symbol id="square"  viewBox="0 0 10 10">
    <rect x="0" y="0" width="10" height="10" />
  </symbol>
   <symbol id="two"  viewBox="0 0 10 10">
    <rect x="0" y="0" width="10" height="10" />
    <rect x="5" y="5" width="10" height="10" fill="var(--variable)" />
  </symbol>
  <symbol id="splash" viewBox="0 0 158.29 140.98">
    <path d="M1544.22,1329c-.14-.14-.1-.16.11,0a.33.33,0,0,0,.16.07,4.82,4.82,0,0,1,.3,1.88l0,0,.13.56,0,0c-.54,0-1.49-.71-1.77-.23-.41.69-1.63-.16-2.36-.1-.23,0-.79-.7-.77-1a3.82,3.82,0,0,0-.56-2.21l0,.08c-.36-.25-.6-.28-.52.16s0,.81-.49.36c-1-.82-1.37-.55-1.59,0s-.5.49-1.11.14c-.18-.1-.39-.19-.21.21a2.53,2.53,0,0,0,.37.47,4.74,4.74,0,0,0,1.89,1.23,1.27,1.27,0,0,1,.32.43c.06.14.07.31,0,.35-.33.29-1.2-.3-1.27.4l0,0a7,7,0,0,1-.79-.86c-1-1.54-1.75-2-2.5-2.06a4.89,4.89,0,0,1-2.05-.25c-1.34-.54-2.18-.52-1.69,1.5,0,.23-.11.32-.34,0-1-1.25-1.35-1.24-1.33-.3,0,.42-.51-.21-.8-.44-.47-.35-.78-.42-.53.26.37,1,0,1.25-.42,1.26a10.58,10.58,0,0,1-2.14-.14c-.32,0-.42-.43-.43-.72a.62.62,0,0,0-.48-.67c-.58-.06-.6,0,0,1.37.4.9.24,1-.31.66s-1.27-1.32-1.42-.91c-.21.61-1-.58-1.43-.65s-.55.39-.4,1.11l0,0c-.51-.25-1-.53-1.53-.75-.68-.31-1-.13-.91.75a1,1,0,0,1-.08.44l0,0c.1.48,0,.78-.34.61a10.49,10.49,0,0,1-1.36-.71c-.51-.31-.89-.42-1,0l-.07-.1c.95,1.32,1,1.36.29,1.45l0,0c-.41.44-.72.19-1.62-1.24l.05.1c-.63-.18-1.19-.25-1.5.15l.34.22-.32-.2c-.29-.41-.67-.8-.68-1.23s.23-.47-.13-1-.63-.34-.85-.26c-.59.22-1.2.42-1.78.65-.16.07-.54-.14-.27.6l1.36.3a2.76,2.76,0,0,1,.58-.16,2.28,2.28,0,0,1,.33.37c0,.1,0,.26-.08.27-.22,0-.55-.24-.89-.56.23,1-.13,1.09-.77.77a7.2,7.2,0,0,1-.94-.69c-.85-.61-.89-.65-.93.24,0,.4-.13.43-.54,0s-.48-.34-.65-.29c-1.76.52-3.55,1-5.28,1.57a7.35,7.35,0,0,0-2.23,1.09,7.29,7.29,0,0,1-1.86,1.06,22.74,22.74,0,0,0-3.92,1.78c-1.27.81-2.67,1.4-4,2.12-.36.2-.76.29-1.44-.2,0,.49-.19.6-.65.29.16.6.11,1-.11,1.18a1.59,1.59,0,0,1-1.78.24c.22-1.12.9-1.67,1.77-1.45a.78.78,0,0,1,.18.13c0-.53.17-.63.65-.3-.19-.47-.26-.83-.06-.94,1.24-.66,2.43-1.36,3.68-2a11.84,11.84,0,0,0,1.09-.5,24.24,24.24,0,0,1,3.11-1.74c1.65-.74,3.31-1.42,5-2a29,29,0,0,1,3-1.22,23.38,23.38,0,0,0,3.31-.93,22.07,22.07,0,0,1,4.61-1.29c1.56-.24,3-.71,4.49-1,.91-.18,1.88-.24,2.81-.37l2-.3c1.89-.3,3.76-.63,5.69-.89a28.41,28.41,0,0,1,4.09-.3c1.47,0,2.73-.36,4.25-.28.66,0,1.18-.19,1.83-.19a49.7,49.7,0,0,1,5,0c1.65.15,3-.22,4.67-.13,3,.18,5.9.14,8.89.21,2.22.05,4.52.2,6.82.32l8.71.42c.93,0,1.91.16,2.86.18,2.72.09,5.71.42,7.77-.68a1.86,1.86,0,0,1,.77-.07c.88,0,1.81,0,2.68-.08s1.8-.12,2.14-.88l0,0a14.59,14.59,0,0,0-3.08-.21.69.69,0,0,1-.56-.09,2.07,2.07,0,0,0-2.2-.1,8.17,8.17,0,0,1-2.08.27c-2.51,0-5.06-.16-7.55-.34s-5-.48-7.39-.62c-1.11-.07-1.94.33-3.37-.32-.15-.07-.18.16-.3.19a2.89,2.89,0,0,1-.91.16c-2.39-.13-4.79-.31-7.15-.48-1.72-.12-3.45-.31-5.09-.31a17.94,17.94,0,0,1-3,.07,8.19,8.19,0,0,0-2.37,0,25.89,25.89,0,0,1-3.46.23c-2,0-4.19,0-6.19.06-1.56.08-3.28-.14-4.53.45-.63.3-1.63,0-2.4.13-2.56.34-5.08.72-7.6,1.1a30.22,30.22,0,0,0-3.23.58,34.6,34.6,0,0,1-6.33.91,5.57,5.57,0,0,0-1.82.4c-1.29.58-2.38,1.54-4,1.58-.49,0-1.11-.17-1.44.09-.92.72-2.25.68-3.42.94-.88.2-1.86-.64-3-2.25,0-.36.21-.11.36-.06,1,.28,1.94.61,1.7-1,.41-.48.68-1.21,2,0,.48.43.7.34.57-.23-.17-.76-.17-1.29.34-1.23l0,0,.35-.18h0c.29,0,.71.43,1.09.73.21.17.38.18.24-.17s-.58-1-.39-1.15.46,0,.79.29c.15.11.34.11.37,0,.12-.53.59-.15,1.16.41.35.34.71.51.77.25.19-.87,1.06-.63,1.7-.77.4-.09.83-.13,1.23-.24.16,0,.23-.29-.11-.72-.58-.73-.59-1-.28-1.08.91-.16,1.76-.41,2.62-.65,1.34-.36,2.77-.57,4.18-.8.44-.08.92,0,1.71,1.08.2.25.62.55.71.49.48-.37,1.35-.17,1.21-1.43-.1-1,.06-.9,1.13.08.62.57.64.57.51-.15,0-.28-.12-.59-.18-.89l.35.35-.36-.36c.59,1,1.17,1.68,1.72,1.66s.88,0,1.29-.1a.25.25,0,0,0,.16-.34c-.5-1.34.25-.68.81-.38.21.11.3-.09.45-.15l-.42-.23s0-.07,0,0l.34.3a1.56,1.56,0,0,0,.74.65c.39.06.32-.22-.29-1-.14-.19-.33-.42-.25-.43.49-.1.62-.93,1.77.27.62.65,1,.66,1.19.37l-.37-.4a.74.74,0,0,1-.14-.23c0-.15.08-.09.22.15l.25.5c.44.2.6,0,.67-.37h0c1.16.78,1.87.7,2.45.36.28-.18,1.09.28.47-1.05-.2-.42,0-.53.19-.66.32-.26.87-.06,1.5.3h-.05c.54-.21.89-.76,1.93-.1l.06,0-.11-.12c.06.71-.5.66-.64,1.11l0-.09c1.06.82,1.39.26,2,.17.09,0,0-.33,0-.53s-.17-.52-.13-.63c.19-.43.82-.14,1.25-.17s.85.52,1.33,1.09.74.67,1,.67c.86,0,1.44-.5,2.45-.26.18,0,.47.16.22-.35-.53-.6-.91-.42-1.65-1.31.57,0,1,0,1.5.08a2,2,0,0,1,1.13.77l-.07-.1c1.38,1.29,2.27,1.4,3.06,1.31a13.62,13.62,0,0,1,3.36.06,29.57,29.57,0,0,0,3.19.23c.28,0,.44-.18.66-.27l0,0a8.89,8.89,0,0,0,2.17.35c1.71,0,3.47.08,5.27.23a32.35,32.35,0,0,0,6.53.28,6.46,6.46,0,0,1,1.6.21c.44.08.93.23,1.34.26,1.83.08,3.64.07,5.5.09a2.55,2.55,0,0,1,1,.08,3.64,3.64,0,0,0,3,.09,1.77,1.77,0,0,1,.72-.1c.29,0,1,.37.82-.1-.31-.75-.92-.71-1.4-1.1-.08-.06-.15-.09-.23-.14l.08.09c.41-.17.69-.56,1.25-.5a44.37,44.37,0,0,0,7-.07c.11,0,.27,0,.37,0s.54.09.13-.51a8.29,8.29,0,0,0-1.35-.25,22.63,22.63,0,0,1-5.43-.33,51.16,51.16,0,0,0-5.44-.57c-2-.17-3.92-.24-5.8-.31-3-.1-6-.32-8.9-.51l-6.06-.42c-1.77-.14-3.29.14-5.23-.34-1.73-.44-3-.14-4.6-.34a18.75,18.75,0,0,0-3.34,0c-1.35,0-3-.53-4.08,0-.16.09-.46,0-.73-.09a2.45,2.45,0,0,0-1.23,0,7,7,0,0,1-1.68.16,30.12,30.12,0,0,0-5,.15c-1,.14-2.31-.24-3.11.26-.09.06-.28,0-.41,0-1.14.06-2.31.06-3.42.19-1.4.17-2.73.46-4.1.69-1,.16-1.94.25-2.87.44-1.93.39-3.86.84-5.83,1.2-.91.17-2,.09-2.84.3-1.79.43-3.53.93-5.27,1.49-1.57.51-3.09,1.12-4.59,1.75-1,.43-1.86,1-2.84,1.46s-2,.58-2.67,1.51a.5.5,0,0,1-.52.28,2,2,0,0,0-1.78.7,4.2,4.2,0,0,1-1.3.61,17.92,17.92,0,0,0-4,2.07,10.22,10.22,0,0,1-2.11,1.14,8.74,8.74,0,0,0-3.56,2.18,1,1,0,0,1-.62.35c-1.86.32-3,1.77-4.54,2.7-1.13.7-2.11,1.61-3.21,2.36a4.78,4.78,0,0,1-1.29.43c.07.86-.43.89-1,.84-.06,0-.23-.23-.35-.37a.53.53,0,0,1-.06-.23c.13-.71.5-1,1.44-.14-.41-.87-.71-1.63-.35-1.91,2.24-1.79,4.3-3.87,6.77-5.29a7,7,0,0,1,2.3-1.28,4,4,0,0,0,2.1-1.13,10.84,10.84,0,0,1,2.47-1.67,15.39,15.39,0,0,0,4-2.36,1.61,1.61,0,0,1,1-.43c2.67-.3,4.67-1.77,7.15-2.36.79-1,2.09-1.08,3.11-1.67a44,44,0,0,1,4.11-2.09,12.07,12.07,0,0,1,3.47-.82c1.82-.22,3.82-.14,5.22-1.08a.61.61,0,0,1,.24-.06,43.5,43.5,0,0,1,7-1,2.23,2.23,0,0,0,1.2-.49,3.26,3.26,0,0,1,1.85-.54c1.43,0,2.51-.53,4.07-.23,1.11-.93,3.12-.35,4.63-.62,2.36-.4,5.15,0,7.54-.34a29.07,29.07,0,0,1,3.59.08c1.6,0,3.22,0,4.77,0,.13,0,.24-.07,0-.41a1.63,1.63,0,0,0-.39-.35,1.75,1.75,0,0,1-.72-.79.32.32,0,0,1,.1-.4c.51-.3.63-.22,1.69,1.27.46.65.83.91,1.13,1a5.75,5.75,0,0,0,1.54,0c.37,0,1.09.45,1.06-.2-.85-1-.87-.26-1.36-.5-.31-.15-.54-.14-.84-.28a4.79,4.79,0,0,1-.78-.52,1.72,1.72,0,0,1-.37-.43c-.07-.14-.11-.34,0-.37a1.27,1.27,0,0,1,.57-.16l3.25-.06c.69,0,1-.4.36-1.81-1.57-1-1.56-.94-2.42-1a4.63,4.63,0,0,1-1.21-.2c-1.39-.5-2.82-1.08-4.21-1.6a2.64,2.64,0,0,0-1.07-.25,7,7,0,0,1-2.43-.53,4.68,4.68,0,0,0-1.07-.25c-2.24-.12-4.47-.27-6.64-.32a9.62,9.62,0,0,1-2.6-.38,6.42,6.42,0,0,0-2.45-.36,1.22,1.22,0,0,1-1-.34,1.66,1.66,0,0,1-.38-.44,1,1,0,0,1-.14-.44c.06-.16.14-.32.29-.35.61-.12,1.26-.13,1.82-.28s1.6.14,1.51-1.07l.06.07a2.71,2.71,0,0,0-1.7-.23,1.3,1.3,0,0,1-1.15-.51c-1.52-1.64-2.07-1.22-2.83-1.19-.3,0-.47.27-.8.22a8.91,8.91,0,0,0-4.24.44c-.58.18-1.82-1-2.09-.33s-.84.74-1.47.8a13,13,0,0,1-3.39.08c-.65-.1-1.52-.56-1.9-.12l.58.91.18.15-.15-.17-.57-.91c-.26,0-.52-.11-.86-.7-.24-.4-.22-.64-.09-.74a1.62,1.62,0,0,1,.78-.43c.62-.06,1.31,0,2,0l.05,0-.13-.56h0c0-.58.34-.72.9-.46l0,0c.2.06.39,0,.61.2.66.61.86.48.85-.07,0-.1.14,0,.2-.08.34-.27.34-.27,1.37.87l0,0a3.17,3.17,0,0,1,1.9-.05c.4.06.66,0,.38-.83-.1-.28,0-.4.22-.14.56.61.82.57,1.11.52a3.15,3.15,0,0,1,.82.11l0,0c-.44-1-.44-1.61.1-1.67.31,0,.52-.15,1.11.72.14.2.49.52.55.49.33-.19,1.33.61,1-.51-.07-.25.06-.27.22-.24a2.75,2.75,0,0,1,1.72.62,2.67,2.67,0,0,0,1.15.48c.2.06.46.12.47-.05,0-.36-.42-.78-.73-1.16a4.08,4.08,0,0,1-.9-2.12,2.44,2.44,0,0,0-1.42-1.7,8.27,8.27,0,0,1-2.6-.52.27.27,0,0,0-.35.06c-.41.65-1.42.35-2.33.18-.54-.1-1-.09-1.18.38s-.8.65-1.42.64c-.31,0-.73-.14-.84.1-.39.84-1.54.36-2.52.06a2.73,2.73,0,0,0-2.22-.07,1.83,1.83,0,0,1-.78.24,23.1,23.1,0,0,0-4.77,1.14,4,4,0,0,0-2.47,1.75c-.12.22-.36.27-.54.4a2.49,2.49,0,0,0-.66.45,2.7,2.7,0,0,1-3,.83,3.5,3.5,0,0,0-1.77-.08c-.8.3-1.71.43-2.5.74-1,.41-2,.93-3,1.4a.56.56,0,0,0-.16.18c-1,1.59-2.8,1.79-4.34,2.45a7.37,7.37,0,0,0-1.94,1c-.24.19-.42.54-.79.46-1.09-.21-1.63.47-2.37.83-.17.09-.3.28-.54.22-.7-.18-1,.25-1.51.44-1.51.61-3,1.2-4.5,1.86s-3.26.87-4.53,1.91c-1.09.87-2.28,1.58-2.4,3.78a.57.57,0,0,1-.16.4c-.91.82-1.23,2.43-1.54,4a19.55,19.55,0,0,0-.68,5.46c.14,2.28-.34,3.73-1.39,4.56a5.1,5.1,0,0,0-1.68,2.49,14.39,14.39,0,0,1-2.26,4.63c-.89,1.07-1,3.17-2.11,4-.18.15-.19.58-.24.92-.14,1-.25,2-.41,2.92-.27,1.63-.56,3.21-1.88,3.48a.88.88,0,0,0-.68.57,8.81,8.81,0,0,1-1.61,2.55,13.63,13.63,0,0,1-2.07,2.76c-1,.77-1.21,2.47-1.2,4.34s1.76,8.09,2.85,10.61a69.93,69.93,0,0,0,4.29,7.82,32.35,32.35,0,0,0,3.35,4.92,17.59,17.59,0,0,1,1.49,2,66.78,66.78,0,0,0,4.4,5.6c5,5.84,10.06,11.39,15.07,16.75l10.84,11.54c1.52,1.63,3,2.89,4.52,4.39a94.74,94.74,0,0,0,7.54,6.56,13.24,13.24,0,0,0,3.37,2.07,9.9,9.9,0,0,1,1.74,1,18.38,18.38,0,0,0,2.86,1.68,15.18,15.18,0,0,0,7.26,1.43,6.2,6.2,0,0,0,3.59-1.38,31,31,0,0,0,2.48-2.73,7.33,7.33,0,0,1,3.47-2.35c1.83-.5,3.39-1.41,5.13-2a5.13,5.13,0,0,0,2.32-1.55c.89-1.1,2-1.89,2.88-3,1-1.25,2-2.6,2.94-4s1.69-2.65,2.6-3.87,1.75-2,2.6-3,1.39-1.91,2.21-2.72c1.22-1.18,2.52-2.24,3.82-3.3a29.39,29.39,0,0,1,2.77-2.59,2.59,2.59,0,0,0,1.44-1.66,3.65,3.65,0,0,1,1.67-2.41c.24-.16.59-.24.45-.84-.24-1.09.25-1.31.52-1.78a4.29,4.29,0,0,0,.76-2.71,1.81,1.81,0,0,1,.59-1.7c.3-.21.47-.48,0-1.42a1.4,1.4,0,0,1-.18-1.1c.29-.67.43-1.57.94-1.92a13,13,0,0,1,3.22-1.79c1.07-.32,2.81.39,3-1.3,0-.05.07,0,.12,0,.25,0,.79.58.79.2s-.63-.93-.93-1.41a5.76,5.76,0,0,1-.5-1c-.51-1.61-.53-2.71.4-2.93a4,4,0,0,0,2.46-1.14,6.94,6.94,0,0,0,1.51-3.47.86.86,0,0,1,.62-.85,15.32,15.32,0,0,1,3.47-.81,6.22,6.22,0,0,0,1.64-.36c.44-.13.39-.76.08-1.59a8.27,8.27,0,0,0-.54-1.07c-.47-.88-.37-1.28,0-1.47a1.66,1.66,0,0,1,.79-.23c1.08-.07,2.18-.13,3.28-.18.92,0,1.78-.13,1.87-1.28.61.33,1.14,1.15,1.59,1.21.91.13,2,.72,2.86.62.35,0,.76,0,.94-.3a.57.57,0,0,0,0-.74,2.48,2.48,0,0,0-.61-.55,2.59,2.59,0,0,0-1.49-.46c-.22,0-.42,0-.64,0a1.28,1.28,0,0,1-1-.75c-.26-.45-.07-.56.11-.6L1587,1361c.36-.08.77-.09.91-.77-1.21-.17-2.2-.35-3.15-.47a11.53,11.53,0,0,0-1.44,0,4.13,4.13,0,0,1-1,0,1.81,1.81,0,0,1-.82-.75c-.27-.41-.24-.66-.09-.77a.85.85,0,0,1,.62-.27c2.13.25,3.42-.8,5.52-.81.51,0,1-.16.89-.86-.21-1.34.56-1.41,1.37-1.48a63.83,63.83,0,0,1,6.51-.3.83.83,0,0,0,.61-.19c.65-.84,1.88-.84,3-1a5.67,5.67,0,0,0-3.68-.54,4.33,4.33,0,0,1-2.82-.67,1.18,1.18,0,0,1-.38-.39c-.07-.13-.09-.34,0-.37a5,5,0,0,1,2-.62,27,27,0,0,0,3.56-.47c.22,0,.41-.19,0-.64a1.89,1.89,0,0,0-.66-.54,3.71,3.71,0,0,0-1.31-.06c-1.5.32-3.39,0-4.61.72a1.49,1.49,0,0,1-1.12.13,21,21,0,0,0-4.08-.13,13.11,13.11,0,0,0-2.54-.12,22.47,22.47,0,0,1-4.22.17c-1.44-.08-2.89-.22-4.28-.25-2,0-4.41-.77-6.3-.55a50.92,50.92,0,0,1-7.08-.08,2.94,2.94,0,0,0-1.25.14c-.4.18-1.11-.32-1.57-.23a32.12,32.12,0,0,1-4.57.49,3.12,3.12,0,0,1-1.17-.33,2,2,0,0,1-.55-.62c-.12-.21-.19-.54-.12-.61a1,1,0,0,1,.59-.2c.73-.07,1.46-.16,2.23-.18a4,4,0,0,1,1.42.21,1.37,1.37,0,0,0,1.4-.08,1.24,1.24,0,0,1,1.63-.18.53.53,0,0,0,.55,0,12.12,12.12,0,0,1,1.94-.22c1.3-.33,3.2.43,4.24-.38a.57.57,0,0,1,.62,0,2.15,2.15,0,0,0,1.94.32c1.69-.23,3.75.15,5.38-.24a3.31,3.31,0,0,1,1,.16c.39,0,.78.11,1.15.13,1.59,0,3.2,0,4.8,0a12.13,12.13,0,0,1,2.57-.06,18.63,18.63,0,0,0,3.27.23h1.58c.53,0,1.08,0,1.64,0,2.35,0,4.57-.33,7.32.21,1.32-.55,3.08-.26,5-.27.1,0,.18-.16.15-.29a1,1,0,0,0-.29-.47c-1.42-1.1-2.77-1.9-4-1.73-.48.06-1,0-1.49,0l-5.44.25-3.12.1-1.54,0h-1.5a53.85,53.85,0,0,0-6.35,0,14.55,14.55,0,0,1-1.75,0,30.09,30.09,0,0,0-4.42-.07c-1.59.29-3.61-.25-5.29-.18a1.26,1.26,0,0,1-.92-.39,1.05,1.05,0,0,1-.39-.69c0-.33.29-.32.56-.27,1.88.3,3.27-.26,5.12-.07a57.47,57.47,0,0,0,7.42.05c.74,0,1.54.06,2.28,0a12.75,12.75,0,0,1,4.34.18,1.52,1.52,0,0,0,.85,0c1.85-.66,4.42-.2,6.48-.62.58-.11,2.16.72.75-1.35-.07-.1.08-.3.2-.35a1.54,1.54,0,0,1,.69-.06c1.49,0,2.72-.49,3.21-1.8.12-.32.43-.28.79-.24a.54.54,0,0,0,.5-.14.85.85,0,0,0,0-1,1.38,1.38,0,0,0-1.11-.71,8.38,8.38,0,0,0-1,0,12.37,12.37,0,0,1-4.14-.49c-1.16-.3-2.19-.26-3.29-.64s-.55,1.31-1.74.62a3.56,3.56,0,0,0-2.45-.46,12.52,12.52,0,0,1-3.69-.26,2.61,2.61,0,0,1-.81-.28,3,3,0,0,1-1-1.11c-.19-.38-.27-.72,0-.69.66.08.86-.57,1.67-.2a4,4,0,0,0,2.4.19,9.48,9.48,0,0,1,1.62.15,4.73,4.73,0,0,0,2.82-.64s0-.11,0-.19a.41.41,0,0,0-.09-.23,1.82,1.82,0,0,0-.4-.39,1.6,1.6,0,0,0-1.1-.08,2.77,2.77,0,0,1-1.47.06,4.93,4.93,0,0,0-2.63-.2,4.35,4.35,0,0,1-1.92-.15c-.74-.21-1.39-.38-1.61.19-.09.25-.49.06-.9-.25s-1.07-.74-1.43-.68c-1.17.19-2.36.23-3.55.31a2.92,2.92,0,0,1-1.37,0,1.67,1.67,0,0,0-.82-.1,6.51,6.51,0,0,1-2.55-.18c-.92-.17-1.78-.26-2.15.4-.17.29-.54.23-1.07-.12s-.81-.47-1.21-.7v0c.14.63,0,.93-.57.72a4.57,4.57,0,0,0-1.57-.52c-.3,0-.48.16-.29.71l.62.87c.51.23,1,.45,1.53.71a1.58,1.58,0,0,1,.35.41c0,.14,0,.31,0,.31-1.39-.1-2.33.51-3.81.26a29.09,29.09,0,0,0-3.57-.14,5.43,5.43,0,0,1-1-.28,1.88,1.88,0,0,1-.58.19c-.06,0-.26-.17-.36-.3s-.16-.37-.12-.39a2.48,2.48,0,0,1,.56-.2,4.16,4.16,0,0,1,2.58-.23,6.67,6.67,0,0,0,1.17,0l0,0a4.82,4.82,0,0,1,2.68-.15c.33,0,.6,0,.67-.29l-.62-.87a1.31,1.31,0,0,1-.51-.14c-1-.6-1.85-1.06-2.25-.51-.09.12-.33.13-.57,0-.72-.42-.63.38-1.12.26a17.87,17.87,0,0,1-1.76-.63c-.36-.12-.6,0-.71.24s-.23.41-.59.15a1.67,1.67,0,0,0-1.8-.21,2.25,2.25,0,0,1-1.66-.18,1.5,1.5,0,0,1-.71-.82c-.07-.2,0-.43.06-.43.75,0,1.56.07,2.31,0,1.21,0,2.39-.17,3.59-.27.2,0,.27-.18,0-.63a1.49,1.49,0,0,0-.78-.66.63.63,0,0,0-.5.11.57.57,0,0,1-.78.1,5.07,5.07,0,0,0-2.84-.55,4.66,4.66,0,0,0-2.37.07c-.32.16-.82-.15-1.28-.32-.25-.09-.38,0-.28.36a3.43,3.43,0,0,0,.36,1.28c.18.1.35.17.53.28.73.46.83.63.76,1.36a.25.25,0,0,1,0,.12l-.38-.26c.07-.2.27.18.41.3-.41-.6-.82-1.21-1.24-1.81-.67-.83-.67-.83-.4-1.27a1.43,1.43,0,0,1-.75-.63,7.67,7.67,0,0,1-.36-.77c-.19-.39-.43-.72-.71-.79s-.37,0-.3.33a4.26,4.26,0,0,0,.3.74c.47,1.16.47,1.17-.14,1.06-.15,0-.35-.14-.5-.16-.37,0-.41.27-.09.85l1.07,1.86c.08.15.16.4.12.42a.35.35,0,0,1-.4,0,10.08,10.08,0,0,1-1.82-1.82c-.82-1-1.51-1.39-2-1.15a2.91,2.91,0,0,1-2.08,0,.28.28,0,0,0-.37.26,2,2,0,0,0,.26.9c.23.44.5.53.69.53.43,0,.87,0,1.11-.25l0,0c1,.37,1.69.29,2.14-.23C1544.42,1329.07,1544.32,1329.1,1544.22,1329Zm10.79,54.41a3.31,3.31,0,0,1,.45,0c.06-.09,0-.33.27-.12,0,0,0,.13,0,.13a1.92,1.92,0,0,1-.3-.08H1555Zm-54-46.07,0-.08,0-.09Zm2.16-.62,0,0Zm27.33,12c0-.35,0-.63.25-.63s.34.11.53.4.16.5,0,.46a5.72,5.72,0,0,1-.83-.31l-.38.17.12.51a10,10,0,0,1,1.76,1.46l-.12-.24.11.18a1.28,1.28,0,0,1-1.19-.26c-.06.18,0,.49-.2.53-.7.17-1.44.27-2.17.39-.23,0-.55-.19-.9-.62a3.85,3.85,0,0,1-1-1.5c-.07-.54.39-.2.81.18s.4,0,.4-.29c0-.73.14-.85.67-.21.87,1,1.17.82,1.57.7.07,0,.22.09.34.14l-.09-.47-.32-.41h.21Zm26,14.69c.07-.08-.06-.06-.06-.09Zm-.18-45c-.29.21-.76.12-1.33-.19-.07.16-.08.4-.35.3a.66.66,0,0,1-.2-.16c-.16-.19-.23-.39-.1-.36a4.65,4.65,0,0,1,.71.31c0-.8.69-.24,1.33.19l.33-.22c.15-.18.45,0,.86.35a.59.59,0,0,0,.06-.2s0,.12,0,.14-.06,0-.1,0l-.91-.41Zm5.24,44.57a.84.84,0,0,1-.13.21s-.11,0-.15,0-.15-.29,0-.25a1.94,1.94,0,0,1,.35.18Zm-70.94-57.75c0-.73.34-.92,1.21-.1l.34-.21c-.06-1-.06-1,.83-.43l-.06-.09c-.11.41-.41.51-.82.44l-.33.2c-.23.35-.52.61-1.22.11l-.36.16a1.05,1.05,0,0,1-.12.21s-.1,0-.14-.06-.16-.3,0-.26a2,2,0,0,1,.33.19Zm78.47,56.93a2.23,2.23,0,0,1,0,.36c0,.14-.11.1-.22-.08a.14.14,0,0,1,0-.14,1.69,1.69,0,0,1,.24,0Zm-99.64-21.46c0,.18-.05.18-.18,0a.29.29,0,0,1,0-.15,1.55,1.55,0,0,1,.12-.22c.07-.08,0-.33.29-.09,0,0,0,.14,0,.13a2.84,2.84,0,0,1-.32-.14C1469.34,1340.39,1469.38,1340.55,1469.4,1340.69Zm82.62,45.87.34.28c0-.38.16-.56.45-.55l-.06-.09c0,.37-.15.57-.41.62Zm-32.49-29.73c0,.24-.15.34-.48-.14a2,2,0,0,1-.17-.45.17.17,0,0,1,.14,0l.56.62.37-.18a.81.81,0,0,1,.27,0s.1.1.15.16l-.47-.23Zm20-46a.38.38,0,0,1,.14-.14.16.16,0,0,1,.14,0c.12.17.12.25,0,.18a3.58,3.58,0,0,1-.32-.18Zm35.74,9c0-.12,0-.34.27-.16,0,0,0,.14,0,.14a2,2,0,0,1-.33,0ZM1555.84,1338a4.55,4.55,0,0,1,.5.19.74.74,0,0,1,.17.21c.1.21,0,.27-.13.11s-.4-.4-.6-.6Zm-62.19-34,.44.4-.33-.74c0-.06,0-.13,0-.12a.52.52,0,0,1,.29.37,1.65,1.65,0,0,1,0,.5Zm57.65,49.47a1,1,0,0,1-.08.27s-.1,0-.14,0-.18-.3,0-.28a1,1,0,0,1,.34.13ZM1540,1364a3.17,3.17,0,0,1-.19.46s-.21-.18-.32-.29,0-.16,0-.16.36,0,.55.06Zm-17.61-13.63c.08,0,.14-.09.25,0,.59.29,1.06-.32,1.77,1,.55,1-.37.72-.62,1a1.94,1.94,0,0,1-2.12.63,1.91,1.91,0,0,1-1.09-.8,2.48,2.48,0,0,1-.57-1c-.06-.35.16-.33.45-.08.94.85,1.66,1.22,1.8.35-.24-.2-.48-.38-.73-.6-.54-.51-.54-.52-.29-.92A1.82,1.82,0,0,1,1522.43,1350.39Zm-19-48.41q-.18-1.17.75-.72a1.47,1.47,0,0,1,.36.38,1.09,1.09,0,0,1,.19.46c-.11.61-.43.55-1.35-.2l-.35.18c0,.21,0,.44-.24.38a.55.55,0,0,1-.18-.14c-.15-.19-.23-.41-.13-.4a2.58,2.58,0,0,1,.6.24Zm47.91,31.33c0,.11,0,.25,0,.3s-.16,0-.27,0a3,3,0,0,1-.25-.39.46.46,0,0,1,.26,0,1.88,1.88,0,0,1,.37.22Zm-9.06,36.76h0a1.29,1.29,0,0,1,.47-.15c.06,0,.3.25.36.37.16.33.06.42-.12.36a2.11,2.11,0,0,1-.78-.68Zm3.64-16.22h.13c.2,0,.43.05.64.55s-.07.58-.41.26a.84.84,0,0,1-.33-.83Zm-19-2.8,0,.08a1.7,1.7,0,0,1-.07.49c0,.14-.21.12-.43-.13a1.62,1.62,0,0,1-.26-.48c-.06-.26.07-.31.25-.2a4.87,4.87,0,0,1,.57.42Zm22.66-17.64a.91.91,0,0,1,.52.55c.07.27-.16.16-.34.07a5.3,5.3,0,0,1-1.37-1.07c.07.43.17.9-.14.91-.11,0-.37-.23-.56-.42a1.92,1.92,0,0,1-.31-.5c-.13-.31,0-.39.15-.32s.58.23.88.35S1549.15,1333.24,1549.55,1333.41Zm-41,.28c-.11-.22-.08-.3.06-.2a1.54,1.54,0,0,1,.12.23c.07.24.14.46.22.69-.31.63-.37.63-.89,0a1.26,1.26,0,0,1-.36-.72.13.13,0,0,1,.17-.13c.32.07.72.51,1.1.88C1508.84,1334.2,1508.69,1333.94,1508.56,1333.69Zm34.75,30.22c0-.25.23.12.37.24-.06-1.41,0-1.44,1.49-.57l-.07-.09a1.53,1.53,0,0,1-1.45.62Zm26.43-3.67-.08-.13a1.78,1.78,0,0,1,1.52.12,1.29,1.29,0,0,1,.35.41c0,.11,0,.26-.07.26a3.06,3.06,0,0,1-1.84-.87Zm-14.9-26.37a.54.54,0,0,1-.64.33,1.41,1.41,0,0,1-1.09-.63.63.63,0,0,1-.12-.25c-.08-.58.45-.1.78,0s.76.39,1.14.59Zm-2.6,13.85c0-.13.1,0,.09.16a1,1,0,0,0,.06.22c.36,1.44.3,1.47-1.07.6-.1.79-.61.9-1.51.37a1.61,1.61,0,0,1-.35-.44c-.06-.12,0-.33,0-.31.68.25,1.11,0,1.91.48,0-.77,0-1.43,1-.62A3,3,0,0,1,1552.24,1347.72Zm-6.37-13.28c-.83.11-1.67.21-2.52.29a1.81,1.81,0,0,1-.63-.14,2.14,2.14,0,0,1-1.27-1c-.13-.59.34-.32.6-.31,1,0,2,.15,2.94.22.38-.77.57-.72,1.74.45l0,0C1546.51,1334.14,1546.35,1334.52,1545.87,1334.44Zm-11.63,5.47s-.2-.23-.3-.35.07-.17.14-.13c.23.14.48.35.72.53-.22-1.76.8-1.54,2.15-.78,0-.12,0-.32,0-.37.7-.63,1.89-.43,2.94-.46.12,0,.39.24.53.55a.58.58,0,0,1,0,.38c0,.1-.07.19-.16.19-1,0-1.9.47-3.39-.37a5.12,5.12,0,0,1-2.14.8A2.24,2.24,0,0,1,1534.24,1339.91Zm6.82,30.88.09.14a2.38,2.38,0,0,1-1.76.06,1,1,0,0,1-.5-.59c-.12-.28-.11-.47,0-.49a4.08,4.08,0,0,1,2.25,1.09Zm52.54-29.24c-.65,1-1.94.8-3.73-.39l.13.2-.07-.12a8.79,8.79,0,0,1,3.74.4Zm-78.26,10.8c.05-.82.49-1.07,1.24-.79a3.83,3.83,0,0,1,1.48,1.57,1,1,0,0,1,.11.41s-.07,0-.12,0a.35.35,0,0,1-.18-.11c-.94-1.07-1.47-1.11-1.85-.75a1.39,1.39,0,0,1-.45.19c.19.35.4.69.56,1,0,.08,0,.16-.06.24a3.14,3.14,0,0,1-.3-.43c-.08-.31-.12-.58-.17-.87A3.07,3.07,0,0,1,1515.34,1352.35Zm18.6-17.84s0-.17,0-.17a1.84,1.84,0,0,1,.3.07c-.22-1.06.1-1.32,1-.75a7.56,7.56,0,0,1,1.56,1.26c-.57-1.61-.6-1.68.21-1.43.5.15,1,.24,1.2,0s1,0,1.47-.06l0,0c.52.36.61-.45,1.43.67.13.68-.3.67-.62.69-.84,0-1.46.51-2.55.13a2.78,2.78,0,0,0-1.11,0c-.29,0-.59.06-.86.12-.45.11-1-.07-1.76-.7C1534.13,1334.46,1534.22,1334.75,1533.94,1334.51Zm12.54,14.79-.11-.21.05.12a3.14,3.14,0,0,1-1.67.69c-.28,0-.7-.08-.66.45q-2,.26-4.08.45c-.17,0-.36.12-.57-.06-1.19-1-1.83-.79-2.66-1-.38-.09-.76-.21-1.14-.32a.91.91,0,0,1-1.25.78,3.16,3.16,0,0,0-1.07,0c-.19,0-.44-.19-.7-.44l.06.09c-.17-.72-.25-1.31.36-1.14a7.44,7.44,0,0,0,1.3.13,2.11,2.11,0,0,1,1.36.63l-1.3-1.69c0-.65.64-.14,1.07.05a4.93,4.93,0,0,0,2.08.55,1.85,1.85,0,0,1,1.28.33c1.18.9,1.46,0,2.37.39.11,0,.09-.25.1-.42s.19-.28.48-.06l2.37,1.75c-.2-.35-.42-.71-.6-1.06s-.35-.95,0-.81c1,.37,1.47,0,2.18-.13-.11,0-.22,0-.32-.12s-.09-.15.12,0c.06,0,.11,0,.16.07Zm-13.5,7.22c.11,0,.36.15.54.46a1,1,0,0,1,.16.47c-.09.44-.4.56-.83.43-.23-.07-.63-.55-1-.85-.17,1.27-.87,1.77-2.14,1.36a1,1,0,0,1-.57-1.09c0-.14.1-.28.23-.28.83,0,1.68,0,2.52.06A10.57,10.57,0,0,1,1533,1356.52Zm-9-11.58c.4-1,1.42-1,2.31-1.23a6.48,6.48,0,0,1,1.82.14c.21.45.13.55,0,.57-1.09.22-2.17.45-3.28.62a3.08,3.08,0,0,1-.92-.19Zm36.12-6.3c-.27-.57-.4-1.07,0-1,1,.13,2,.36,3.08.57a1.11,1.11,0,0,1,.36.36c.17.28.15.49,0,.49a11.13,11.13,0,0,1-3.47-.48Zm-27.84,1.29a4.6,4.6,0,0,1-2.36,1.42c-.18.06-.52-.13-.81-.26a1.63,1.63,0,0,1-.36-.45c-.07-.15-.14-.4-.1-.43a3.62,3.62,0,0,1,.95-.51c.48-.13,1-.14,1.53-.26.31-.08.74.2,1.21.58Zm44.23-5.92c.81.45,1.32.44,1.72.12s1.44.24,2.28,1.11c.08.09.2.39.16.42a1.42,1.42,0,0,1-.64.24c-1.26.16-2.74-.23-4.72-1.89.34.49.81,1,.5,1.26a1.88,1.88,0,0,1-1.78.11c-.81-.27-1.66-.64-2.49-1l.07.09c-.06-.41-.09-.82.25-.81,1,0,2,.06,3.09.11.09,0,.28.2.42.3C1575.57,1333.74,1575.92,1333.67,1576.53,1334Zm-33,5.37a6.4,6.4,0,0,0-1.76-.5,1.68,1.68,0,0,1-.35-.38s-.08-.19-.06-.21c.44-.44,1-.64,2.23.69-.11-.61,0-.89.4-1a14,14,0,0,1,3.83-.23c.22,0,.44-.19.79.43.13.25-.06.52-.13.74a.17.17,0,0,1-.22.1c-1.71-.54-2.81,0-4.24,0a1.91,1.91,0,0,1-.5-.16C1543.48,1339.05,1543.56,1339.41,1543.49,1339.38Zm-20.69,2.71a15.23,15.23,0,0,1,2.2-1.84,3.55,3.55,0,0,1,1.76,0c.11,0,.4.26.55.47s.15.46,0,.52a4.93,4.93,0,0,1-1.08.53c-.92.24-1.88.43-2.85.6-.15,0-.46-.23-.69-.35Zm-21.19-39.84a1.3,1.3,0,0,1,.29.23.54.54,0,0,1,.09.22c0,.29-.21.18-.37.18-.13.2-.17.57-.42.57-1.43,0-2.41.72-3.77.8a1.2,1.2,0,0,1-.53,0,1.31,1.31,0,0,1-.69-.76c-.18-.43,0-.46.19-.44l0,0c1.27.15,2.16-.38,3.24-.58a1.89,1.89,0,0,1,2.09.56C1501.66,1302.73,1501.62,1302.48,1501.61,1302.25Zm19.37,33.22c.16-.1.57.26.9.68a3.25,3.25,0,0,1,.47.74c.06.2,0,.45-.07.43a3.5,3.5,0,0,0-1.7.11c-.27.1-.79-.37-1.25-.74.09.53.08,1-.23,1-1,.2-2.09.37-3.17.49-.15,0-.47-.22-.72-.43a1,1,0,0,1-.35-.68c.05-.41.39-.4.67-.46.78-.16,1.61-.25,2.37-.43.4-.1,1,.29,1.5.58C1519.27,1335.39,1520.39,1335.83,1521,1335.47Zm-37.08-4.19c.58.4,1.16.75,1.73,1.11-.33-.68-.46-1.2-.25-1.46a1.45,1.45,0,0,1,1.48-.71l-.1-.53c-.61-1.32,0-1.18.4-1.19l-.05-.08c1.42,1.56,1.71,1.69,1.93.79.14-.54.17-1.22,1-.58.1.07.18,0,.23-.08s-.12-1.06.31-.68c1,.85,1.21-.19,2.27.9l-.92-2.12c.2-.29.79.74,1,.57a2.22,2.22,0,0,1,.49-.33.41.41,0,0,1,.32.15,1.09,1.09,0,0,1,.29.7c.09,1.08-.38,1.32-1.26.92a4.76,4.76,0,0,1-3.47,2.21,1,1,0,0,0-.73.39c-.54.76-1.57.74-2.29,1.21-.15.1-.5-.11-.76-.17-.61,1.16-1.75,2-2.62,1.76a.79.79,0,0,1-.56-.89l-.82-1.35,1.73-.32a.7.7,0,0,1-.32-.14c-.15-.17-.1-.19.11,0a.42.42,0,0,0,.17.1C1483.41,1331.29,1483.47,1331,1483.9,1331.28Zm-9.34,7.56a1.87,1.87,0,0,1-.53-.55c-.18-.27-.21-.54-.1-.59s.5-.08.73-.16c.72-.26,1.48-.47,1.37-1.89,0-.28.09-.39.31-.35s.66.06.84-.17l0,0c.13,0,.3,0,.39,0s.11-.43.28-.4c.32.06.75.65,1.13,1.06-.33-1.1-.12-1.65.31-1.84a2.54,2.54,0,0,0,1.33-1.58c.06-.14.15-.21.37,0a2.66,2.66,0,0,1,.68,1c.27.65.39,1.26.19,1.46-.74.72-1.36,1.66-2.95.93.06.45,0,.76-.19.92-1,.82-1.77,2-3.33,1.85l0,0C1475.15,1338.63,1475.06,1339.09,1474.56,1338.84Zm-16.36,6-1.22.51-.33-.24c.07-.19.24.17.36.27a1.56,1.56,0,0,1,.08-1.25,16.72,16.72,0,0,1,1.72-2.07c1-.86,2.32-1.18,3.12-2.34.14-.21.45-.2.6-.4.42-.57,1.17-.18,2.2.91-.37-.5-.74-1-1.09-1.5-.21-.29-.23-.53-.08-.54s.35.19.54.47c.4.59.3,1,.61,1.56a.79.79,0,0,0-1,.2,13.38,13.38,0,0,0-2.43,2.22,10.06,10.06,0,0,1-2.43,1.74l-.7.49Zm46.85-2.8s-.08,0-.12,0-.18-.29,0-.29a1.58,1.58,0,0,1,.31.1l-.07-.49,0,0c.38-1.6,1.83-1.57,2.87-2.16.25-.14.58-.06,1,.21a7.21,7.21,0,0,0,1.17.5v.06c-.46-.56-.77-1.15-.45-1.24a16.1,16.1,0,0,0,2.83-1.28,2.93,2.93,0,0,1,1.52,0c.2,0,.51.38.7.8s.08.47-.06.46a3.38,3.38,0,0,0-2.33,1,4.12,4.12,0,0,0-1.28,1.08,1.83,1.83,0,0,1-1,.6c-.75.28-1.53.54-2.32.77a2.6,2.6,0,0,1-2.62-.42A1.29,1.29,0,0,1,1505.05,1342Zm44.63,0c-.81.09-1.64.13-2.47.18-1.94.11-3.9.17-5.78.34s-3.47.55-5.31.6-3.44.72-5.26.9c-.22,0-.42.08-.64.09-.66,0-1.17-.23-1.26-.59-.17-.71.33-.47.58-.56a16.8,16.8,0,0,1,4.36-.93c2.41-.21,4.85-.38,7.25-.62,1.16-.11,2.24-.36,3.46-.37a30.48,30.48,0,0,1,5.08-.08l3.59-.26a4.17,4.17,0,0,1,1.13,0c2.32.45,4.14,0,6.38.23a1.75,1.75,0,0,0,.84-.06,1.6,1.6,0,0,1,1.49,0c.4.19.72.21.83-.07.22-.64,1-.25,1.73,0a1.09,1.09,0,0,1,.55.57c.07.2,0,.44-.06.46a4.53,4.53,0,0,1-1.24.18c-2.28,0-4.59-.09-6.84-.1-2,0-4,.07-6,.12a2.73,2.73,0,0,1-1.89-.34C1550,1341.83,1549.9,1342,1549.68,1342.05Zm-16.75-6.85a10.38,10.38,0,0,1-3,.6c-1.72-.07-3.08.46-4.66.61-.65.07-1,.59-1.58.86-.21.1-.57-.28-.89-.74s-.49-1-.33-1.1.06-.06.11,0c1.92.21,2.91-1.19,4.9-.88.2,0,.31-.11.44-.2,1.07-.72,2.82-.24,4.17-.47.16,0,.46.19.71.35a2.74,2.74,0,0,1,.3.48C1533.19,1335,1533.09,1335.16,1532.93,1335.2Zm36.6,6.08c-.19-.29-.24-.56-.09-.55a33.08,33.08,0,0,1,6.38.5.93.93,0,0,1,.55.54c.06.13.07.32,0,.34a3.17,3.17,0,0,1-1.43.18,10.7,10.7,0,0,0-4-.32,1.41,1.41,0,0,1-1-.25A4,4,0,0,1,1569.53,1341.28Zm-23,27.66a2.7,2.7,0,0,1,1.08-.35,19.8,19.8,0,0,1,2,.06.37.37,0,0,1,.18.17c.07.15.17.41.14.42-.92.24-1.85.45-2.78.65-.07,0-.25-.18-.36-.26C1546.55,1369.33,1546.41,1369,1546.51,1368.94ZM1518.05,1352c-.15-.39-.12-.57.11-.56a3.44,3.44,0,0,0,.65,0c.29,0,.68.31,1.08.73s.63.92.47,1.06a2,2,0,0,1-.7.46c-.14,0-.4-.1-.52-.13A3.28,3.28,0,0,1,1518.05,1352Zm-5.06,2.33a2.34,2.34,0,0,1-.53-.65c-.16-.31,0-.39,0-.47a3.08,3.08,0,0,0,.27-.24c.14-.15.23-.45.6-.1.62.58.36.89.52,1.34s.47.74.37,1C1513.85,1354.92,1513.43,1354.67,1513,1354.34Zm31,15.5c0-.14-.12-.36-.07-.38a1.75,1.75,0,0,1,1.38-.27,1.36,1.36,0,0,1,.54.43c.2.28.17.51,0,.52-.53,0-1.09,0-1.58.06C1544.1,1370,1544,1369.89,1544,1369.84ZM1528.54,1359a.88.88,0,0,1-1-.09,1.79,1.79,0,0,1-.55-.52c-.3-.48-.11-.53.06-.55s.3-.39.71-.16a2.33,2.33,0,0,1,.83,1C1528.59,1358.8,1528.6,1359,1528.54,1359Zm31.44,4.41c-.56,0-1.13.06-1.7.06-.14,0-.34-.07-.49-.43-.06-.14,0-.32,0-.34a3.54,3.54,0,0,1,2,.06.8.8,0,0,1,.18.21,1.57,1.57,0,0,1,.09.23C1560.07,1363.26,1560.06,1363.4,1560,1363.4Zm-24.52-32a1.2,1.2,0,0,1-1.08,0,1.08,1.08,0,0,1-.53-.56c-.08-.19,0-.4,0-.44.27-.16.63-.17,1.18.24a4.28,4.28,0,0,1,.36.43C1535.45,1331.14,1535.51,1331.35,1535.46,1331.36Zm12,17c0-.19,0-.38.14-.36a2.35,2.35,0,0,1,.72.37,1.27,1.27,0,0,1,.49.66.47.47,0,0,1,0,.34c-.13.19-.35.21-.72-.07A1.83,1.83,0,0,1,1547.43,1348.32ZM1557.6,1338s0-.16,0-.17a9,9,0,0,1,1.06-.14c.06,0,.29.21.36.33a1,1,0,0,1,.1.42c0,.75-.6.35-1.19,0C1557.82,1338.29,1557.7,1338.15,1557.6,1338Zm28.17,3.39a1.11,1.11,0,0,1,.41.33c.21.31.13.45,0,.44a2.87,2.87,0,0,1-1.93-.67A1.87,1.87,0,0,1,1585.77,1341.39Zm-21.78,21.1a7.88,7.88,0,0,1,1.22-.12c.07,0,.27.15.36.27.23.32.17.46,0,.49-.39.06-.62.41-1.21.11a2.5,2.5,0,0,1-.38-.4C1564,1362.72,1563.94,1362.5,1564,1362.49Zm10.4-2.17c-.07-.45.11-.64.42-.64a.88.88,0,0,1,.39.29,1.42,1.42,0,0,1,.29.48c0,.48-.15.73-.61.57A1.18,1.18,0,0,1,1574.39,1360.32Zm-33.26,3.64c.1-.44.44-.47,1-.19a.77.77,0,0,1,.17.21c0,.07.06.18,0,.2a.72.72,0,0,1-.87.19s-.13-.11-.19-.17S1541.12,1364,1541.13,1364Zm9-46.22s0-.12,0-.13a.86.86,0,0,1,.89.14.88.88,0,0,1,.18.23.49.49,0,0,1,.07.22c-.06.35-.47.1-.84-.07Zm-76.84,21.64a1.36,1.36,0,0,1-.45-.69c0-.4.14-.46.47-.22a1.22,1.22,0,0,1,.42.7C1473.83,1339.61,1473.65,1339.7,1473.28,1339.38Zm59.26-8.54a.9.9,0,0,1-.27.21c-.11.09-.14.36-.47,0a1,1,0,0,1-.19-.45c.05-.49.37-.55.73-.19C1532.5,1330.59,1532.59,1330.76,1532.54,1330.84Zm-20.1,24.27a1.33,1.33,0,0,1-.85-.77.23.23,0,0,1,0-.19c.16-.19.46.07.79.45.05.07.1.17.15.25S1512.5,1355.13,1512.44,1355.11Zm41.83,8.21c-.1-.38.1-.38.36-.24a.87.87,0,0,1,.45.6c0,.31-.21.25-.48.08A2.08,2.08,0,0,1,1554.27,1363.32Zm23.62-21.33a1.89,1.89,0,0,1-.39-.35.34.34,0,0,1,0-.21c.14-.19.4-.17.76,0,0,0,.12.14.19.22C1578.48,1342.11,1578.21,1342.09,1577.89,1342Zm-44,14.09c0-.23.1-.24.3-.1a1.55,1.55,0,0,1,.62.85c.06.27-.14.17-.35,0A1.27,1.27,0,0,1,1533.87,1356.08Zm35.22-36.94c-.09-.31.07-.37.33-.26a.81.81,0,0,1,.46.58c0,.25-.15.28-.51.06A2.16,2.16,0,0,1,1569.09,1319.14Zm-9.36-.65c-.06-.14-.15-.34-.11-.37s.37-.14.74.12a.77.77,0,0,1,.19.21c0,.07.06.16,0,.19s-.34.19-.66,0A1.28,1.28,0,0,1,1559.73,1318.49Zm-7.39-.44a.81.81,0,0,1-.17-.23c0-.07-.05-.17,0-.17.26.06.53.14.81.23a.73.73,0,0,1,.16.22.37.37,0,0,1,0,.18C1552.94,1318.35,1552.7,1318.33,1552.34,1318.05Zm9.89.48c.17.31-.15.35-.56,0a1.82,1.82,0,0,1-.36-.42c-.19-.36.09-.36.57,0A2.55,2.55,0,0,1,1562.23,1318.53Zm-23.71,11.94a1.42,1.42,0,0,1-.24-.45c0-.21.21-.09.42.13a2.68,2.68,0,0,1,.24.45C1538.9,1330.78,1538.73,1330.7,1538.52,1330.47Zm-1,25.43c0-.06.06-.18.15-.16a.59.59,0,0,1,.41.49c0,.08-.14,0-.22,0Zm30.94-14.25a.78.78,0,0,1-.44-.55c0-.22.12-.23.33-.07a2.43,2.43,0,0,1,.35.4C1568.77,1341.68,1568.67,1341.75,1568.47,1341.65Zm.67-7.32a2,2,0,0,1-.2-.39c.1,0,.21,0,.3.13a1.42,1.42,0,0,1,.2.39C1569.34,1334.42,1569.23,1334.42,1569.14,1334.33Zm3.55,26.12c0,.23-.11.22-.33,0a.81.81,0,0,1-.17-.4c0-.07.15,0,.23,0A1.91,1.91,0,0,1,1572.69,1360.45ZM1553,1337.8s.07,0,.13,0a.47.47,0,0,1,.27.37c0,.08-.13,0-.2,0C1553,1338.05,1553,1337.9,1553,1337.8Zm13.48-18.89c0,.12-.18.13-.32.13a.48.48,0,0,1-.32-.35c0-.22.11-.21.3-.13S1566.51,1318.83,1566.49,1318.91Zm-18.27,12.3c-.09-.13-.19-.26-.27-.39s0-.09,0-.1.2.07.3.27Zm-9.71,40c0,.06,0,.19-.13.16s-.2-.22-.31-.34l.12-.19Zm-19.66-10,.32.4s0,.08,0,.12l-.32-.4Zm61.12-1.8a.88.88,0,0,1-.1-.21c.11,0,.2,0,.25.25Zm-12-25.12s-.11,0-.16-.07-.24-.3-.18-.38.1.05.16.07S1568.05,1334.23,1568,1334.3Zm-49.71-2.63c0-.17,0-.16.18,0a.45.45,0,0,1,.06.19s-.07,0-.11,0A1.08,1.08,0,0,1,1518.28,1331.67Zm41.65,38a1.07,1.07,0,0,1,.16-.14l.14.2-.15.15Zm-40.37-26.61c-.13-.19-.14-.3,0-.29a.26.26,0,0,1,.15.11c.14.19.14.3,0,.3S1519.6,1343.13,1519.56,1343.07Zm31.75,25.79s-.09-.1-.14-.15,0-.1,0-.09.09.09.14.15S1551.34,1368.87,1551.31,1368.86Zm-11-13.7s0-.11,0-.1a.77.77,0,0,1,.15.18l0,.11Zm17.66,15.19s0,.05-.08,0-.2-.25-.14-.31.09,0,.14.08A.91.91,0,0,1,1557.94,1370.35Zm-10.53-7.27.13.05v.16Zm11.09-44.72,0-.1.12.19Zm-22.44-.36c-.16-.1-.24-.24-.19-.33s.1,0,.14.06a1.3,1.3,0,0,1,.12.21S1536.09,1318,1536.06,1318Zm-9.9.07-.13-.18.14.06Zm5.12,13.5s-.11,0-.13,0c-.14-.22-.13-.27,0-.16Zm31.27,31.37s.09,0,.14,0,.1.18.09.21-.09,0-.14,0S1562.54,1363,1562.55,1362.94Zm25.19-21.36.15.14h-.11Zm-52,15.17-.12-.15.1,0Z" transform="translate(-1445.31 -1291.84)" /><path  d="M1567.59,1329.5c-.19-.58-.17-1,.15-1a3.92,3.92,0,0,1,2.38.54c.55.24,1,.41,1.25.16s.69-.19,1-.37a1.12,1.12,0,0,1,1.17,0,6.06,6.06,0,0,0,1,.39,1.39,1.39,0,0,0,.65-.11c.54,1.15.55,1.74-.28,1.38a3.74,3.74,0,0,0-2.39-.2c-.65.09-1.39,0-2.07.09a5.34,5.34,0,0,1-2.85-.87Z" transform="translate(-1445.31 -1291.84)" /><path  d="M1565.34,1331.11c-.16,0-.32,0-.49-.11-1.24-1-2.12-1.33-2.8-1.07-.27.11-.61-.49-.76-.94h0c.4-.06.79-.14,1.21-.17.71-.06.93.1,2,1.41.26.31.53.6.81.9Z" transform="translate(-1445.31 -1291.84)" /><path  d="M1559.34,1328.42c.25.2.57.81.47.9a1.4,1.4,0,0,1-1.34.13,2,2,0,0,1-.38-.41.52.52,0,0,1-.09-.23c0-.66.44-.82,1.14-.56A1.4,1.4,0,0,1,1559.34,1328.42Z" transform="translate(-1445.31 -1291.84)" /><polygon  points="68.08 39.61 68.05 38.59 68.04 38.61 69.39 39.43 69.32 39.33 69.61 40.78 69.65 40.76 68.03 39.51 68.08 39.61" /><path  d="M1532.89,1326.65c.06.44,0,.76-.41.52a1.11,1.11,0,0,1-.5-.61c-.15-.54.19-.73.62-.36A2.34,2.34,0,0,1,1532.89,1326.65Z" transform="translate(-1445.31 -1291.84)" /><path  d="M1511.89,1321c-.21.3-.48.53-1.11,0-.42-.36.25-.38,1.17.12Z" transform="translate(-1445.31 -1291.84)" /><path  d="M1531.3,1318.56l-.94.74,0,0a3.16,3.16,0,0,1-.22-1.62h-.05l1.24.92Z" transform="translate(-1445.31 -1291.84)" /><path  d="M1567.53,1329.42c-.1.07-.16.19-.3.2s-.39-.17-.58-.45a1,1,0,0,1-.16-.43c0-.17.25-.07.47.12s.41.42.63.64Z" transform="translate(-1445.31 -1291.84)" /><path  d="M1513.36,1330.43c-.14-.35-.31-.71-.42-1-.22-.67,0-.67.51-.32.18.68-.1.87-.1,1.36Z" transform="translate(-1445.31 -1291.84)" /><path  d="M1499,1323.33a4.18,4.18,0,0,1,.79,1.19c0,.1-.07.16-.16.13-.42-.11-.68-.62-.9-1.17l0,0,.35-.18Z" transform="translate(-1445.31 -1291.84)" /><path  d="M1561.29,1329a4.11,4.11,0,0,1-.39-.24,2.16,2.16,0,0,1-.87-1c0-.06,0-.14,0-.14.38,0,.59.56.85.92l.36.49Z" transform="translate(-1445.31 -1291.84)" /><path  d="M1512,1321.12a1.91,1.91,0,0,1,.07-.28c.07-.16.16-.3.44-.07s.14.45-.25.38a1.35,1.35,0,0,1-.32-.13Z" transform="translate(-1445.31 -1291.84)" /><path  d="M1530.36,1319.3c-.29-.18-.58-.34-.88-.54a.56.56,0,0,1-.26-.42c0-.09.12-.12.22-.06a3.62,3.62,0,0,1,.93,1S1530.36,1319.3,1530.36,1319.3Z" transform="translate(-1445.31 -1291.84)" /><path  d="M1525.57,1300.71l.38,0h.19s0,.11,0,.12a.27.27,0,0,1-.14,0l-.47-.19Z" transform="translate(-1445.31 -1291.84)" /><path  d="M1576.58,1328.53a1.68,1.68,0,0,1,0,.46c0,.09-.2,0-.32-.21s0-.14,0-.15a2.24,2.24,0,0,1,.37-.1Z" transform="translate(-1445.31 -1291.84)" /><path  d="M1508.57,1297c.13.15.25.3.37.46a.79.79,0,0,1,.14.24c0,.11-.12,0-.24-.22s-.16-.33-.23-.5Z" transform="translate(-1445.31 -1291.84)" /><path  d="M1534.47,1318.5l.15.2a1.4,1.4,0,0,1-.17.09s-.1-.14-.16-.21Z" transform="translate(-1445.31 -1291.84)" /><path  d="M1542.94,1326.46c0-.14-.08-.28-.11-.41s0-.15,0-.13a.24.24,0,0,1,.16.29l-.07.25Z" transform="translate(-1445.31 -1291.84)" /><path  d="M1517.9,1328s.09,0,.14,0,.26.32.16.36-.13-.09-.18-.16A.9.9,0,0,1,1517.9,1328Z" transform="translate(-1445.31 -1291.84)" /><path  d="M1508.85,1321.55s0-.15,0-.14a2.32,2.32,0,0,1,.29.21.58.58,0,0,1,0,.15A2.86,2.86,0,0,1,1508.85,1321.55Z" transform="translate(-1445.31 -1291.84)" /><polygon  points="120.6 89.51 120.49 89.44 120.52 89.36 120.6 89.51" /><path  d="M1561.52,1313.68s-.07,0-.12,0-.25-.25-.18-.31.11,0,.17.1S1561.47,1313.61,1561.52,1313.68Z" transform="translate(-1445.31 -1291.84)" /><path  d="M1565.47,1329.54a.62.62,0,0,1,.24,0,.46.46,0,0,1,.17.15c.1.19.06.24-.11.11a3.81,3.81,0,0,1-.37-.34Z" transform="translate(-1445.31 -1291.84)" /><path  d="M1542.94,1326.46l-.37-.3-.31-.23a2.49,2.49,0,0,1,.3.19c.13.1.26.22.38.33Z" transform="translate(-1445.31 -1291.84)" /><path  d="M1523.73,1319.44s0,.07-.07,0-.21-.24-.17-.32.09,0,.13.07A1.8,1.8,0,0,1,1523.73,1319.44Z" transform="translate(-1445.31 -1291.84)" /><polygon  points="81.57 34.71 81.7 34.81 81.67 34.89 81.57 34.71" /><polygon  points="76.06 35.92 75.95 35.72 76.11 35.84 76.06 35.92" /><path  d="M1507.93,1322.75c-.08-.18-.17-.36-.25-.53s-.11-.23-.09-.24.16.08.21.31l.13.47Z" transform="translate(-1445.31 -1291.84)" /><polygon  points="126.45 22.25 126.62 22.34 126.44 22.21 126.45 22.25" /><path  d="M1548.89,1309.76c.22,0-.09-.06,0-.07Z" transform="translate(-1445.31 -1291.84)" /><polygon  points="62.62 30.92 62.29 30.6 62.63 30.91 62.62 30.92" /><path  d="M1571.75,1314l.19.7.06,0-.23-.69A.21.21,0,0,1,1571.75,1314Z" transform="translate(-1445.31 -1291.84)" /><polygon  points="126.63 22.91 126.78 22.96 126.7 22.95 126.63 22.91" /><path  d="M1555.34,1313l0-.06Z" transform="translate(-1445.31 -1291.84)" />
    <path  d="M1555.32,1312.92l.08.18-.06-.12Z" transform="translate(-1445.31 -1291.84)" />
    <path  d="M1548.85,1309.69l.07.13a.17.17,0,0,0,0,0Z" transform="translate(-1445.31 -1291.84)" />
    <polygon  points="131.29 36.69 131.93 37.28 131.97 37.27 131.27 36.69 131.29 36.69" />
    <path  d="M1577.24,1329.11h0Z" transform="translate(-1445.31 -1291.84)" />
    <path  d="M1565.4,1329.44l.07.1Z" transform="translate(-1445.31 -1291.84)" />
    <path  d="M1516,1297.53l0,0Z" transform="translate(-1445.31 -1291.84)" />
    <path  d="M1540.32,1318l.07.1Z" transform="translate(-1445.31 -1291.84)" />
    <polygon  points="66.24 6.06 66.34 6.09 66.29 6.09 66.24 6.06" />
    <polygon  points="62.41 5.61 62.53 6.13 62.58 6.18 62.45 5.63 62.41 5.61" />
    <polygon  points="99.61 39.66 99.48 39.13 99.43 39.08 99.56 39.65 99.61 39.66" />
    <path  d="M1539.48,1328.07l-.06-.15,0,.06Z" transform="translate(-1445.31 -1291.84)" />
    <path  d="M1517.39,1331.35l0,0Z" transform="translate(-1445.31 -1291.84)" />
    <path  d="M1549.66,1340.94l.59.87Z" transform="translate(-1445.31 -1291.84)" />
    <path  d="M1510.17,1340l-.1-.21.09.15Z" transform="translate(-1445.31 -1291.84)" />
    <path  d="M1486.81,1330.2l-.1-.57Z" transform="translate(-1445.31 -1291.84)" />
    <path  d="M1458.2,1344.8h-.08l.05,0Z" transform="translate(-1445.31 -1291.84)" />
    <path  d="M1557,1334.25l-.61-.87Z" transform="translate(-1445.31 -1291.84)" />
    <path  d="M1521.25,1349.87l1.23.93c.16.51.15.82-.23.67Z" transform="translate(-1445.31 -1291.84)" />
    <path  d="M1522.47,1350.86l-.11-.56Z" transform="translate(-1445.31 -1291.84)" />
    <path  d="M1530.23,1349.63l.57.88Z" transform="translate(-1445.31 -1291.84)" />
    <polygon  points="51.05 11.16 51.16 11.19 51.1 11.2 51.05 11.16" />
    <path d="M1544.94,1333.38l1,1.13Z" transform="translate(-1445.31 -1291.84)" />
    <path d="M1545.89,1353.85l0,0Z" transform="translate(-1445.31 -1291.84)" />
  </symbol>
</svg>